<svg id="visual" viewBox="0 0 2000 2160" width="2000" height="2160" xmlns="http://www.w3.org/2000/svg" xmlns:xlink="http://www.w3.org/1999/xlink" version="1.1"><g stroke-width="1" stroke-linejoin="bevel"><path d="M1009 1031L959 1193L1180 1145Z" fill="#4d3b7a" stroke="#4d3b7a"></path><path d="M1180 1145L1188 933L1009 1031Z" fill="#433072" stroke="#433072"></path><path d="M959 1193L934 1371L1180 1145Z" fill="#4d3b7a" stroke="#4d3b7a"></path><path d="M714 961L816 1264L959 1193Z" fill="#4a3878" stroke="#4a3878"></path><path d="M959 1193L816 1264L934 1371Z" fill="#402d70" stroke="#402d70"></path><path d="M934 1371L1227 1433L1180 1145Z" fill="#3b286b" stroke="#3b286b"></path><path d="M1180 1145L1453 1155L1188 933Z" fill="#3b286b" stroke="#3b286b"></path><path d="M1188 933L1057 754L1009 1031Z" fill="#433072" stroke="#433072"></path><path d="M1009 1031L714 961L959 1193Z" fill="#362267" stroke="#362267"></path><path d="M1057 754L714 961L1009 1031Z" fill="#453374" stroke="#453374"></path><path d="M1227 1433L1453 1155L1180 1145Z" fill="#453374" stroke="#453374"></path><path d="M1188 933L1317 648L1057 754Z" fill="#362267" stroke="#362267"></path><path d="M816 1264L730 1427L934 1371Z" fill="#392569" stroke="#392569"></path><path d="M934 1371L1201 1705L1227 1433Z" fill="#483676" stroke="#483676"></path><path d="M424 1250L730 1427L816 1264Z" fill="#483676" stroke="#483676"></path><path d="M1453 1155L1541 900L1188 933Z" fill="#3e2a6e" stroke="#3e2a6e"></path><path d="M1227 1433L1525 1407L1453 1155Z" fill="#392569" stroke="#392569"></path><path d="M1453 1155L1714 1130L1541 900Z" fill="#3b286b" stroke="#3b286b"></path><path d="M1519 774L1317 648L1188 933Z" fill="#4a3878" stroke="#4a3878"></path><path d="M1004 502L708 713L1057 754Z" fill="#362267" stroke="#362267"></path><path d="M1057 754L708 713L714 961Z" fill="#3e2a6e" stroke="#3e2a6e"></path><path d="M708 713L534 922L714 961Z" fill="#433072" stroke="#433072"></path><path d="M714 961L424 1250L816 1264Z" fill="#3b286b" stroke="#3b286b"></path><path d="M1541 900L1519 774L1188 933Z" fill="#453374" stroke="#453374"></path><path d="M925 1745L1201 1705L934 1371Z" fill="#4d3b7a" stroke="#4d3b7a"></path><path d="M1227 1433L1439 1689L1525 1407Z" fill="#453374" stroke="#453374"></path><path d="M730 1427L925 1745L934 1371Z" fill="#362267" stroke="#362267"></path><path d="M1203 480L1004 502L1057 754Z" fill="#483676" stroke="#483676"></path><path d="M534 922L424 1250L714 961Z" fill="#4f3e7c" stroke="#4f3e7c"></path><path d="M730 1427L690 1701L925 1745Z" fill="#453374" stroke="#453374"></path><path d="M1525 1407L1714 1130L1453 1155Z" fill="#4d3b7a" stroke="#4d3b7a"></path><path d="M1541 900L1815 671L1519 774Z" fill="#362267" stroke="#362267"></path><path d="M1301 1964L1439 1689L1201 1705Z" fill="#4a3878" stroke="#4a3878"></path><path d="M1201 1705L1439 1689L1227 1433Z" fill="#3e2a6e" stroke="#3e2a6e"></path><path d="M1525 1407L1703 1516L1714 1130Z" fill="#4a3878" stroke="#4a3878"></path><path d="M1317 648L1203 480L1057 754Z" fill="#4d3b7a" stroke="#4d3b7a"></path><path d="M1513 485L1203 480L1317 648Z" fill="#392569" stroke="#392569"></path><path d="M441 1409L690 1701L730 1427Z" fill="#4d3b7a" stroke="#4d3b7a"></path><path d="M424 1250L441 1409L730 1427Z" fill="#453374" stroke="#453374"></path><path d="M1714 1130L1761 986L1541 900Z" fill="#362267" stroke="#362267"></path><path d="M1519 774L1513 485L1317 648Z" fill="#4d3b7a" stroke="#4d3b7a"></path><path d="M790 1931L1027 1858L925 1745Z" fill="#4a3878" stroke="#4a3878"></path><path d="M925 1745L1027 1858L1201 1705Z" fill="#3e2a6e" stroke="#3e2a6e"></path><path d="M1439 1689L1703 1516L1525 1407Z" fill="#4a3878" stroke="#4a3878"></path><path d="M1714 1130L2000 1146L1761 986Z" fill="#4d3b7a" stroke="#4d3b7a"></path><path d="M453 535L458 673L708 713Z" fill="#483676" stroke="#483676"></path><path d="M708 713L458 673L534 922Z" fill="#453374" stroke="#453374"></path><path d="M534 922L305 1221L424 1250Z" fill="#453374" stroke="#453374"></path><path d="M173 967L305 1221L534 922Z" fill="#4d3b7a" stroke="#4d3b7a"></path><path d="M424 1250L305 1221L441 1409Z" fill="#392569" stroke="#392569"></path><path d="M1004 502L791 408L708 713Z" fill="#453374" stroke="#453374"></path><path d="M999 246L791 408L1004 502Z" fill="#4a3878" stroke="#4a3878"></path><path d="M1676 454L1513 485L1519 774Z" fill="#4d3b7a" stroke="#4d3b7a"></path><path d="M1203 480L1188 262L1004 502Z" fill="#4a3878" stroke="#4a3878"></path><path d="M515 1910L790 1931L690 1701Z" fill="#3e2a6e" stroke="#3e2a6e"></path><path d="M690 1701L790 1931L925 1745Z" fill="#362267" stroke="#362267"></path><path d="M475 1757L690 1701L441 1409Z" fill="#362267" stroke="#362267"></path><path d="M266 1479L475 1757L441 1409Z" fill="#483676" stroke="#483676"></path><path d="M791 408L453 535L708 713Z" fill="#453374" stroke="#453374"></path><path d="M458 673L173 967L534 922Z" fill="#4a3878" stroke="#4a3878"></path><path d="M1027 1858L1301 1964L1201 1705Z" fill="#3b286b" stroke="#3b286b"></path><path d="M1439 1689L1817 1625L1703 1516Z" fill="#3b286b" stroke="#3b286b"></path><path d="M1056 2160L1301 1964L1027 1858Z" fill="#362267" stroke="#362267"></path><path d="M305 1221L266 1479L441 1409Z" fill="#4a3878" stroke="#4a3878"></path><path d="M1513 485L1188 262L1203 480Z" fill="#4f3e7c" stroke="#4f3e7c"></path><path d="M2000 902L1815 671L1761 986Z" fill="#453374" stroke="#453374"></path><path d="M1761 986L1815 671L1541 900Z" fill="#453374" stroke="#453374"></path><path d="M1513 485L1556 178L1188 262Z" fill="#433072" stroke="#433072"></path><path d="M1188 262L999 246L1004 502Z" fill="#3e2a6e" stroke="#3e2a6e"></path><path d="M791 408L737 267L453 535Z" fill="#453374" stroke="#453374"></path><path d="M1753 1907L1817 1625L1439 1689Z" fill="#3b286b" stroke="#3b286b"></path><path d="M2000 1418L2000 1146L1714 1130Z" fill="#362267" stroke="#362267"></path><path d="M197 690L173 967L458 673Z" fill="#4a3878" stroke="#4a3878"></path><path d="M305 1221L0 1448L266 1479Z" fill="#3b286b" stroke="#3b286b"></path><path d="M1815 671L1676 454L1519 774Z" fill="#392569" stroke="#392569"></path><path d="M999 246L737 267L791 408Z" fill="#402d70" stroke="#402d70"></path><path d="M2000 1418L1714 1130L1703 1516Z" fill="#3e2a6e" stroke="#3e2a6e"></path><path d="M475 1757L515 1910L690 1701Z" fill="#3b286b" stroke="#3b286b"></path><path d="M228 1947L515 1910L475 1757Z" fill="#3b286b" stroke="#3b286b"></path><path d="M1302 2160L1466 1996L1301 1964Z" fill="#453374" stroke="#453374"></path><path d="M1301 1964L1466 1996L1439 1689Z" fill="#392569" stroke="#392569"></path><path d="M1056 2160L1027 1858L790 1931Z" fill="#3e2a6e" stroke="#3e2a6e"></path><path d="M2000 1146L2000 902L1761 986Z" fill="#483676" stroke="#483676"></path><path d="M1815 671L2000 495L1676 454Z" fill="#433072" stroke="#433072"></path><path d="M293 523L197 690L458 673Z" fill="#483676" stroke="#483676"></path><path d="M293 523L458 673L453 535Z" fill="#433072" stroke="#433072"></path><path d="M1817 1625L2000 1418L1703 1516Z" fill="#362267" stroke="#362267"></path><path d="M316 270L293 523L453 535Z" fill="#4a3878" stroke="#4a3878"></path><path d="M0 1618L224 1656L266 1479Z" fill="#4f3e7c" stroke="#4f3e7c"></path><path d="M266 1479L224 1656L475 1757Z" fill="#4d3b7a" stroke="#4d3b7a"></path><path d="M820 2160L1056 2160L790 1931Z" fill="#433072" stroke="#433072"></path><path d="M1699 2160L1753 1907L1466 1996Z" fill="#4f3e7c" stroke="#4f3e7c"></path><path d="M1466 1996L1753 1907L1439 1689Z" fill="#4f3e7c" stroke="#4f3e7c"></path><path d="M1817 1625L2000 1627L2000 1418Z" fill="#4d3b7a" stroke="#4d3b7a"></path><path d="M2000 902L2000 661L1815 671Z" fill="#453374" stroke="#453374"></path><path d="M1056 2160L1302 2160L1301 1964Z" fill="#3b286b" stroke="#3b286b"></path><path d="M500 2160L820 2160L790 1931Z" fill="#483676" stroke="#483676"></path><path d="M2000 1922L2000 1627L1817 1625Z" fill="#3b286b" stroke="#3b286b"></path><path d="M173 967L0 1167L305 1221Z" fill="#4a3878" stroke="#4a3878"></path><path d="M0 988L0 1167L173 967Z" fill="#4a3878" stroke="#4a3878"></path><path d="M0 758L173 967L197 690Z" fill="#3b286b" stroke="#3b286b"></path><path d="M0 758L0 988L173 967Z" fill="#402d70" stroke="#402d70"></path><path d="M1677 174L1556 178L1676 454Z" fill="#483676" stroke="#483676"></path><path d="M1676 454L1556 178L1513 485Z" fill="#433072" stroke="#433072"></path><path d="M1188 262L1022 0L999 246Z" fill="#3b286b" stroke="#3b286b"></path><path d="M569 0L455 195L737 267Z" fill="#483676" stroke="#483676"></path><path d="M1302 2160L1448 2160L1466 1996Z" fill="#3e2a6e" stroke="#3e2a6e"></path><path d="M0 1167L0 1448L305 1221Z" fill="#3e2a6e" stroke="#3e2a6e"></path><path d="M737 267L455 195L453 535Z" fill="#4a3878" stroke="#4a3878"></path><path d="M0 501L0 758L197 690Z" fill="#4a3878" stroke="#4a3878"></path><path d="M1022 0L737 267L999 246Z" fill="#3b286b" stroke="#3b286b"></path><path d="M0 501L197 690L293 523Z" fill="#4d3b7a" stroke="#4d3b7a"></path><path d="M2000 661L2000 495L1815 671Z" fill="#4d3b7a" stroke="#4d3b7a"></path><path d="M1255 0L1022 0L1188 262Z" fill="#453374" stroke="#453374"></path><path d="M2000 162L1677 174L1676 454Z" fill="#3e2a6e" stroke="#3e2a6e"></path><path d="M1556 178L1255 0L1188 262Z" fill="#4d3b7a" stroke="#4d3b7a"></path><path d="M455 195L316 270L453 535Z" fill="#392569" stroke="#392569"></path><path d="M1486 0L1255 0L1556 178Z" fill="#4f3e7c" stroke="#4f3e7c"></path><path d="M224 1656L228 1947L475 1757Z" fill="#4d3b7a" stroke="#4d3b7a"></path><path d="M515 1910L500 2160L790 1931Z" fill="#433072" stroke="#433072"></path><path d="M0 1618L228 1947L224 1656Z" fill="#3b286b" stroke="#3b286b"></path><path d="M0 1448L0 1618L266 1479Z" fill="#402d70" stroke="#402d70"></path><path d="M228 1947L500 2160L515 1910Z" fill="#4a3878" stroke="#4a3878"></path><path d="M1022 0L685 0L737 267Z" fill="#4f3e7c" stroke="#4f3e7c"></path><path d="M455 195L224 0L316 270Z" fill="#433072" stroke="#433072"></path><path d="M1448 2160L1699 2160L1466 1996Z" fill="#402d70" stroke="#402d70"></path><path d="M1753 1907L2000 1922L1817 1625Z" fill="#433072" stroke="#433072"></path><path d="M1693 0L1486 0L1556 178Z" fill="#402d70" stroke="#402d70"></path><path d="M2000 2160L2000 1922L1753 1907Z" fill="#483676" stroke="#483676"></path><path d="M316 270L0 501L293 523Z" fill="#453374" stroke="#453374"></path><path d="M0 197L0 501L316 270Z" fill="#392569" stroke="#392569"></path><path d="M685 0L569 0L737 267Z" fill="#4d3b7a" stroke="#4d3b7a"></path><path d="M2000 162L1693 0L1677 174Z" fill="#4f3e7c" stroke="#4f3e7c"></path><path d="M1677 174L1693 0L1556 178Z" fill="#402d70" stroke="#402d70"></path><path d="M0 1991L229 2160L228 1947Z" fill="#362267" stroke="#362267"></path><path d="M228 1947L229 2160L500 2160Z" fill="#4f3e7c" stroke="#4f3e7c"></path><path d="M2000 495L2000 162L1676 454Z" fill="#453374" stroke="#453374"></path><path d="M0 1618L0 1991L228 1947Z" fill="#4f3e7c" stroke="#4f3e7c"></path><path d="M1699 2160L2000 2160L1753 1907Z" fill="#362267" stroke="#362267"></path><path d="M569 0L224 0L455 195Z" fill="#402d70" stroke="#402d70"></path><path d="M224 0L0 197L316 270Z" fill="#4d3b7a" stroke="#4d3b7a"></path><path d="M2000 162L2000 0L1693 0Z" fill="#4d3b7a" stroke="#4d3b7a"></path><path d="M0 1991L0 2160L229 2160Z" fill="#4f3e7c" stroke="#4f3e7c"></path><path d="M224 0L0 0L0 197Z" fill="#392569" stroke="#392569"></path></g></svg>