<svg id="visual" viewBox="0 0 1800 1080" width="1800" height="1080" xmlns="http://www.w3.org/2000/svg" xmlns:xlink="http://www.w3.org/1999/xlink" version="1.1"><g stroke-width="1" stroke-linejoin="bevel"><path d="M871 580L750 698L826 694Z" fill="#4f3e7c" stroke="#4f3e7c"></path><path d="M871 580L662 601L750 698Z" fill="#402d70" stroke="#402d70"></path><path d="M662 601L597 653L750 698Z" fill="#483676" stroke="#483676"></path><path d="M871 580L774 391L662 601Z" fill="#402d70" stroke="#402d70"></path><path d="M662 601L531 464L597 653Z" fill="#392569" stroke="#392569"></path><path d="M871 580L892 399L774 391Z" fill="#3e2a6e" stroke="#3e2a6e"></path><path d="M653 854L894 847L750 698Z" fill="#4f3e7c" stroke="#4f3e7c"></path><path d="M750 698L894 847L826 694Z" fill="#433072" stroke="#433072"></path><path d="M826 694L1116 753L871 580Z" fill="#4d3b7a" stroke="#4d3b7a"></path><path d="M871 580L1090 493L892 399Z" fill="#392569" stroke="#392569"></path><path d="M597 653L653 854L750 698Z" fill="#453374" stroke="#453374"></path><path d="M774 391L586 412L662 601Z" fill="#4f3e7c" stroke="#4f3e7c"></path><path d="M586 412L531 464L662 601Z" fill="#4a3878" stroke="#4a3878"></path><path d="M597 653L550 952L653 854Z" fill="#483676" stroke="#483676"></path><path d="M1116 753L1090 493L871 580Z" fill="#3b286b" stroke="#3b286b"></path><path d="M894 847L1116 753L826 694Z" fill="#483676" stroke="#483676"></path><path d="M1090 493L1058 353L892 399Z" fill="#483676" stroke="#483676"></path><path d="M892 399L923 176L774 391Z" fill="#4a3878" stroke="#4a3878"></path><path d="M774 391L702 160L586 412Z" fill="#3b286b" stroke="#3b286b"></path><path d="M308 874L550 952L597 653Z" fill="#4a3878" stroke="#4a3878"></path><path d="M653 854L683 1080L894 847Z" fill="#3e2a6e" stroke="#3e2a6e"></path><path d="M894 847L1064 962L1116 753Z" fill="#402d70" stroke="#402d70"></path><path d="M936 1080L1064 962L894 847Z" fill="#3e2a6e" stroke="#3e2a6e"></path><path d="M1058 353L923 176L892 399Z" fill="#483676" stroke="#483676"></path><path d="M923 176L702 160L774 391Z" fill="#483676" stroke="#483676"></path><path d="M340 391L293 554L531 464Z" fill="#453374" stroke="#453374"></path><path d="M1299 653L1242 542L1116 753Z" fill="#4f3e7c" stroke="#4f3e7c"></path><path d="M1116 753L1242 542L1090 493Z" fill="#4a3878" stroke="#4a3878"></path><path d="M1090 493L1189 375L1058 353Z" fill="#433072" stroke="#433072"></path><path d="M1058 353L1143 237L923 176Z" fill="#4d3b7a" stroke="#4d3b7a"></path><path d="M1242 542L1189 375L1090 493Z" fill="#453374" stroke="#453374"></path><path d="M550 952L683 1080L653 854Z" fill="#453374" stroke="#453374"></path><path d="M683 1080L936 1080L894 847Z" fill="#483676" stroke="#483676"></path><path d="M340 391L531 464L586 412Z" fill="#483676" stroke="#483676"></path><path d="M531 464L293 554L597 653Z" fill="#362267" stroke="#362267"></path><path d="M471 136L340 391L586 412Z" fill="#4a3878" stroke="#4a3878"></path><path d="M550 952L609 1080L683 1080Z" fill="#453374" stroke="#453374"></path><path d="M391 1080L609 1080L550 952Z" fill="#4f3e7c" stroke="#4f3e7c"></path><path d="M293 554L291 707L597 653Z" fill="#4f3e7c" stroke="#4f3e7c"></path><path d="M1264 830L1299 653L1116 753Z" fill="#483676" stroke="#483676"></path><path d="M1477 306L1193 244L1189 375Z" fill="#453374" stroke="#453374"></path><path d="M1193 244L1143 237L1189 375Z" fill="#362267" stroke="#362267"></path><path d="M1189 375L1143 237L1058 353Z" fill="#3b286b" stroke="#3b286b"></path><path d="M1289 1080L1264 830L1064 962Z" fill="#4d3b7a" stroke="#4d3b7a"></path><path d="M1064 962L1264 830L1116 753Z" fill="#3e2a6e" stroke="#3e2a6e"></path><path d="M936 1080L1056 1080L1064 962Z" fill="#4f3e7c" stroke="#4f3e7c"></path><path d="M291 707L308 874L597 653Z" fill="#3e2a6e" stroke="#3e2a6e"></path><path d="M1474 507L1189 375L1242 542Z" fill="#402d70" stroke="#402d70"></path><path d="M889 0L702 160L923 176Z" fill="#483676" stroke="#483676"></path><path d="M693 0L471 136L702 160Z" fill="#453374" stroke="#453374"></path><path d="M702 160L471 136L586 412Z" fill="#433072" stroke="#433072"></path><path d="M340 391L257 395L293 554Z" fill="#392569" stroke="#392569"></path><path d="M175 535L229 788L291 707Z" fill="#402d70" stroke="#402d70"></path><path d="M291 707L229 788L308 874Z" fill="#392569" stroke="#392569"></path><path d="M142 231L257 395L340 391Z" fill="#3b286b" stroke="#3b286b"></path><path d="M175 535L291 707L293 554Z" fill="#483676" stroke="#483676"></path><path d="M308 874L391 1080L550 952Z" fill="#4d3b7a" stroke="#4d3b7a"></path><path d="M234 964L391 1080L308 874Z" fill="#3e2a6e" stroke="#3e2a6e"></path><path d="M257 395L175 535L293 554Z" fill="#453374" stroke="#453374"></path><path d="M889 0L693 0L702 160Z" fill="#453374" stroke="#453374"></path><path d="M889 0L923 176L1100 0Z" fill="#402d70" stroke="#402d70"></path><path d="M1100 0L923 176L1143 237Z" fill="#453374" stroke="#453374"></path><path d="M473 0L407 104L471 136Z" fill="#4d3b7a" stroke="#4d3b7a"></path><path d="M471 136L407 104L340 391Z" fill="#3e2a6e" stroke="#3e2a6e"></path><path d="M257 395L0 360L175 535Z" fill="#392569" stroke="#392569"></path><path d="M0 847L234 964L229 788Z" fill="#3b286b" stroke="#3b286b"></path><path d="M229 788L234 964L308 874Z" fill="#362267" stroke="#362267"></path><path d="M693 0L473 0L471 136Z" fill="#402d70" stroke="#402d70"></path><path d="M1193 244L1100 0L1143 237Z" fill="#4a3878" stroke="#4a3878"></path><path d="M1056 1080L1289 1080L1064 962Z" fill="#362267" stroke="#362267"></path><path d="M1517 698L1474 507L1299 653Z" fill="#453374" stroke="#453374"></path><path d="M1517 698L1299 653L1264 830Z" fill="#4a3878" stroke="#4a3878"></path><path d="M1299 653L1474 507L1242 542Z" fill="#4d3b7a" stroke="#4d3b7a"></path><path d="M1193 244L1298 0L1100 0Z" fill="#3e2a6e" stroke="#3e2a6e"></path><path d="M1474 956L1517 698L1264 830Z" fill="#362267" stroke="#362267"></path><path d="M407 104L142 231L340 391Z" fill="#4f3e7c" stroke="#4f3e7c"></path><path d="M244 0L142 231L407 104Z" fill="#402d70" stroke="#402d70"></path><path d="M473 0L341 0L407 104Z" fill="#453374" stroke="#453374"></path><path d="M1628 377L1477 306L1474 507Z" fill="#402d70" stroke="#402d70"></path><path d="M1474 507L1477 306L1189 375Z" fill="#3e2a6e" stroke="#3e2a6e"></path><path d="M1289 1080L1474 956L1264 830Z" fill="#3e2a6e" stroke="#3e2a6e"></path><path d="M1563 652L1559 558L1517 698Z" fill="#402d70" stroke="#402d70"></path><path d="M1517 698L1559 558L1474 507Z" fill="#392569" stroke="#392569"></path><path d="M1800 755L1563 652L1517 698Z" fill="#4d3b7a" stroke="#4d3b7a"></path><path d="M0 360L0 588L175 535Z" fill="#3e2a6e" stroke="#3e2a6e"></path><path d="M175 535L0 588L229 788Z" fill="#483676" stroke="#483676"></path><path d="M1477 306L1386 109L1193 244Z" fill="#402d70" stroke="#402d70"></path><path d="M1386 109L1298 0L1193 244Z" fill="#4a3878" stroke="#4a3878"></path><path d="M0 588L0 775L229 788Z" fill="#4d3b7a" stroke="#4d3b7a"></path><path d="M0 847L126 1080L234 964Z" fill="#483676" stroke="#483676"></path><path d="M234 964L126 1080L391 1080Z" fill="#4d3b7a" stroke="#4d3b7a"></path><path d="M341 0L244 0L407 104Z" fill="#392569" stroke="#392569"></path><path d="M0 775L0 847L229 788Z" fill="#3e2a6e" stroke="#3e2a6e"></path><path d="M142 231L0 360L257 395Z" fill="#392569" stroke="#392569"></path><path d="M0 184L0 360L142 231Z" fill="#402d70" stroke="#402d70"></path><path d="M1289 1080L1460 1080L1474 956Z" fill="#392569" stroke="#392569"></path><path d="M1474 956L1668 963L1517 698Z" fill="#453374" stroke="#453374"></path><path d="M1800 574L1628 377L1559 558Z" fill="#402d70" stroke="#402d70"></path><path d="M1559 558L1628 377L1474 507Z" fill="#483676" stroke="#483676"></path><path d="M1604 0L1468 0L1386 109Z" fill="#402d70" stroke="#402d70"></path><path d="M1386 109L1468 0L1298 0Z" fill="#362267" stroke="#362267"></path><path d="M0 0L0 184L142 231Z" fill="#483676" stroke="#483676"></path><path d="M0 847L0 1080L126 1080Z" fill="#392569" stroke="#392569"></path><path d="M1604 0L1386 109L1685 101Z" fill="#433072" stroke="#433072"></path><path d="M1460 1080L1668 963L1474 956Z" fill="#483676" stroke="#483676"></path><path d="M1563 652L1800 574L1559 558Z" fill="#3b286b" stroke="#3b286b"></path><path d="M244 0L0 0L142 231Z" fill="#483676" stroke="#483676"></path><path d="M1800 755L1800 574L1563 652Z" fill="#4a3878" stroke="#4a3878"></path><path d="M1685 101L1386 109L1477 306Z" fill="#4d3b7a" stroke="#4d3b7a"></path><path d="M1460 1080L1687 1080L1668 963Z" fill="#362267" stroke="#362267"></path><path d="M1668 963L1800 755L1517 698Z" fill="#402d70" stroke="#402d70"></path><path d="M1685 101L1477 306L1628 377Z" fill="#453374" stroke="#453374"></path><path d="M1800 954L1800 755L1668 963Z" fill="#3b286b" stroke="#3b286b"></path><path d="M1800 147L1685 101L1628 377Z" fill="#4f3e7c" stroke="#4f3e7c"></path><path d="M1800 574L1800 384L1628 377Z" fill="#3e2a6e" stroke="#3e2a6e"></path><path d="M1687 1080L1800 954L1668 963Z" fill="#362267" stroke="#362267"></path><path d="M1800 384L1800 147L1628 377Z" fill="#4a3878" stroke="#4a3878"></path><path d="M1685 101L1800 0L1604 0Z" fill="#4d3b7a" stroke="#4d3b7a"></path><path d="M1687 1080L1800 1080L1800 954Z" fill="#483676" stroke="#483676"></path><path d="M1800 147L1800 0L1685 101Z" fill="#453374" stroke="#453374"></path></g></svg>