<?xml version="1.0" encoding="UTF-8"?>
<svg xmlns="http://www.w3.org/2000/svg" xmlns:xlink="http://www.w3.org/1999/xlink" width="375pt" height="374.999991pt" viewBox="0 0 375 374.999991" version="1.2">
<g id="surface1">
<path style="fill-rule:nonzero;fill:rgb(100%,100%,100%);fill-opacity:1;stroke-width:1;stroke-linecap:butt;stroke-linejoin:miter;stroke:rgb(100%,100%,100%);stroke-opacity:1;stroke-miterlimit:10;" d="M 654.500039 647.500061 C 689.420042 647.220061 723.020045 653.720062 755.300048 667.000063 C 839.240056 701.920066 906.720062 782.460074 918.220064 876.680083 C 925.320064 935.040088 918.700064 991.340094 889.820061 1043.200098 C 852.220057 1110.720105 796.980052 1158.020109 720.820045 1176.000111 C 630.820036 1197.240113 547.600029 1181.680111 475.820022 1120.640106 C 428.720017 1080.580102 398.020015 1030.260097 387.500014 968.960091 C 376.300012 903.620085 382.760013 840.420079 417.160016 782.500074 C 438.360018 746.78007 464.760021 717.500068 496.620024 695.340066 C 522.840026 677.280064 551.340029 664.260063 582.140032 656.280062 C 605.860034 650.120061 629.980036 647.180061 654.500039 647.500061 Z M 652.240038 1048.220099 C 725.000045 1049.840099 784.980051 987.360093 785.240051 916.040086 C 785.420051 846.04008 724.540045 783.940074 652.540039 783.840074 C 581.160032 783.740074 518.240026 841.540079 518.340026 915.920086 C 518.440026 990.320093 582.000032 1049.920099 652.240038 1048.220099 Z M 652.240038 1048.220099 " transform="matrix(0.195312,0,0,0.195312,0.0000045,0)"/>
<path style="fill-rule:nonzero;fill:rgb(100%,100%,100%);fill-opacity:1;stroke-width:1;stroke-linecap:butt;stroke-linejoin:miter;stroke:rgb(100%,100%,100%);stroke-opacity:1;stroke-miterlimit:10;" d="M 1529.780121 1168.60011 L 1394.140108 1168.60011 C 1394.040108 1165.32011 1393.840108 1162.20011 1393.840108 1159.060109 C 1393.840108 1079.340102 1393.840108 999.620094 1393.840108 919.900087 C 1394.000108 907.420086 1392.680108 895.100084 1389.840108 882.940083 C 1378.280107 835.660079 1327.440102 779.760074 1252.080095 784.200074 C 1188.080089 787.980074 1142.760085 836.340079 1131.440084 879.640083 C 1128.140083 892.520084 1126.540083 905.620085 1126.620083 918.920087 C 1126.660083 998.640094 1126.660083 1078.360102 1126.620083 1158.080109 L 1126.620083 1168.58011 L 991.34007 1168.58011 C 991.18007 1165.58011 990.92007 1162.92011 990.92007 1160.300109 C 990.92007 1077.600102 990.66007 994.900094 990.96007 912.200086 C 991.38007 795.940075 1067.480078 693.520065 1178.160088 659.700062 C 1200.02009 653.040062 1222.260092 648.860061 1245.280094 649.580061 C 1253.120095 649.840061 1260.980096 649.760061 1268.820097 649.580061 C 1332.460103 648.300061 1387.540108 670.440063 1435.420112 711.160067 C 1481.820117 750.580071 1512.62012 799.660075 1524.420121 859.900081 C 1527.900121 877.440083 1529.660121 895.160084 1529.700121 913.040086 C 1529.820121 995.720094 1529.820121 1078.420102 1529.700121 1161.14011 Z M 1529.780121 1168.60011 " transform="matrix(0.195312,0,0,0.195312,0.0000045,0)"/>
<path style="fill-rule:nonzero;fill:rgb(100%,100%,100%);fill-opacity:1;stroke-width:1;stroke-linecap:butt;stroke-linejoin:miter;stroke:rgb(100%,100%,100%);stroke-opacity:1;stroke-miterlimit:10;" d="M 654.500039 647.500061 C 689.420042 647.220061 723.020045 653.720062 755.300048 667.000063 C 839.240056 701.920066 906.720062 782.460074 918.220064 876.680083 C 925.320064 935.040088 918.700064 991.340094 889.820061 1043.200098 C 852.220057 1110.720105 796.980052 1158.020109 720.820045 1176.000111 C 630.820036 1197.240113 547.600029 1181.680111 475.820022 1120.640106 C 428.720017 1080.580102 398.020015 1030.260097 387.500014 968.960091 C 376.300012 903.620085 382.760013 840.420079 417.160016 782.500074 C 438.360018 746.78007 464.760021 717.500068 496.620024 695.340066 C 522.840026 677.280064 551.340029 664.260063 582.140032 656.280062 C 605.860034 650.120061 629.980036 647.180061 654.500039 647.500061 Z M 652.240038 1048.220099 C 725.000045 1049.840099 784.980051 987.360093 785.240051 916.040086 C 785.420051 846.04008 724.540045 783.940074 652.540039 783.840074 C 581.160032 783.740074 518.240026 841.540079 518.340026 915.920086 C 518.440026 990.320093 582.000032 1049.920099 652.240038 1048.220099 Z M 652.240038 1048.220099 " transform="matrix(0.195312,0,0,0.195312,0.0000045,0)"/>
<path style="fill-rule:nonzero;fill:rgb(100%,100%,100%);fill-opacity:1;stroke-width:1;stroke-linecap:butt;stroke-linejoin:miter;stroke:rgb(100%,100%,100%);stroke-opacity:1;stroke-miterlimit:10;" d="M 1529.780121 1168.60011 L 1394.140108 1168.60011 C 1394.040108 1165.32011 1393.840108 1162.20011 1393.840108 1159.060109 C 1393.840108 1079.340102 1393.840108 999.620094 1393.840108 919.900087 C 1394.000108 907.420086 1392.680108 895.100084 1389.840108 882.940083 C 1378.280107 835.660079 1327.440102 779.760074 1252.080095 784.200074 C 1188.080089 787.980074 1142.760085 836.340079 1131.440084 879.640083 C 1128.140083 892.520084 1126.540083 905.620085 1126.620083 918.920087 C 1126.660083 998.640094 1126.660083 1078.360102 1126.620083 1158.080109 L 1126.620083 1168.58011 L 991.34007 1168.58011 C 991.18007 1165.58011 990.92007 1162.92011 990.92007 1160.300109 C 990.92007 1077.600102 990.66007 994.900094 990.96007 912.200086 C 991.38007 795.940075 1067.480078 693.520065 1178.160088 659.700062 C 1200.02009 653.040062 1222.260092 648.860061 1245.280094 649.580061 C 1253.120095 649.840061 1260.980096 649.760061 1268.820097 649.580061 C 1332.460103 648.300061 1387.540108 670.440063 1435.420112 711.160067 C 1481.820117 750.580071 1512.62012 799.660075 1524.420121 859.900081 C 1527.900121 877.440083 1529.660121 895.160084 1529.700121 913.040086 C 1529.820121 995.720094 1529.820121 1078.420102 1529.700121 1161.14011 Z M 1529.780121 1168.60011 " transform="matrix(0.195312,0,0,0.195312,0.0000045,0)"/>
<path style="fill-rule:nonzero;fill:rgb(100%,100%,100%);fill-opacity:1;stroke-width:1;stroke-linecap:butt;stroke-linejoin:miter;stroke:rgb(100%,100%,100%);stroke-opacity:1;stroke-miterlimit:10;" d="M 883.28006 1343.380127 C 893.040061 1336.800126 897.980062 1327.540125 902.700062 1318.140124 C 904.080062 1315.400124 904.560062 1311.620124 909.400063 1313.040124 C 910.060063 1313.240124 911.540063 1311.140124 912.460063 1309.960124 C 916.460063 1304.880123 920.120064 1299.520123 924.460064 1294.720122 C 926.920064 1292.160122 929.780065 1290.180122 933.040065 1288.800122 C 940.380066 1285.520121 945.580066 1289.480122 944.460066 1297.400122 C 943.940066 1300.620123 943.020066 1303.700123 941.680066 1306.660123 C 937.680065 1315.860124 931.360065 1323.060125 922.760064 1328.260125 L 916.060063 1332.440126 C 916.200063 1337.560126 918.980064 1339.440126 923.320064 1339.720126 C 928.240065 1340.040126 932.420065 1338.440126 935.880065 1334.940126 C 940.640066 1330.240125 944.880066 1324.940125 949.260067 1319.860125 C 951.140067 1317.720124 952.920067 1315.480124 954.540067 1313.560124 C 958.260067 1314.700124 958.540067 1316.700124 957.360067 1318.880124 C 950.300067 1332.440126 940.740066 1343.700127 925.940064 1348.880127 C 914.640063 1352.880128 906.940063 1347.020127 906.040062 1334.960126 C 905.900062 1333.100126 906.040062 1331.240126 906.040062 1327.820125 C 904.120062 1330.300125 903.100062 1331.700126 902.040062 1333.020126 C 895.640061 1340.660126 889.580061 1348.620127 882.70006 1355.780128 C 879.26006 1359.220128 876.76006 1363.240129 875.18006 1367.840129 C 871.840059 1377.84013 868.180059 1387.700131 863.940058 1397.300132 C 861.800058 1402.140132 858.340058 1406.500133 854.940058 1410.660133 C 852.960057 1412.900133 850.580057 1414.620133 847.800057 1415.760134 C 840.640056 1419.000134 834.940056 1416.100134 832.800056 1408.600133 C 831.980055 1405.680133 831.820055 1402.740132 832.280055 1399.740132 C 832.760056 1396.740132 833.840056 1394.000132 835.520056 1391.480131 C 839.860056 1384.980131 844.800057 1378.98013 850.320057 1373.48013 C 855.020058 1368.980129 860.080058 1364.960129 865.540059 1361.420128 C 870.260059 1358.180128 871.980059 1353.840128 872.720059 1347.140127 C 869.400059 1349.760127 867.160059 1351.820128 864.660059 1353.460128 C 858.440058 1357.520128 852.920057 1355.460128 851.080057 1348.260127 C 850.420057 1345.620127 850.320057 1342.960127 850.740057 1340.260126 C 853.420057 1324.140125 860.000058 1309.840124 871.820059 1298.340122 C 874.740059 1295.460122 878.06006 1293.220122 881.82006 1291.580122 C 889.640061 1288.320122 895.260061 1292.660122 894.880061 1301.120123 C 894.660061 1306.000123 895.200061 1311.060124 894.120061 1315.740124 C 893.060061 1320.440125 890.340061 1324.660125 888.540061 1329.160125 C 886.600061 1333.860126 885.00006 1338.640126 883.28006 1343.380127 Z M 861.380058 1347.000127 C 865.400059 1344.960127 868.760059 1342.160127 871.500059 1338.580126 C 874.240059 1335.020126 876.06006 1331.040126 876.98006 1326.620125 C 877.98006 1322.000125 879.98006 1318.420124 881.98006 1314.500124 C 883.98006 1310.560124 886.980061 1306.720123 884.36006 1300.680123 C 874.880059 1304.580123 870.560059 1312.680124 866.480059 1320.600125 C 862.520058 1328.280125 858.340058 1336.220126 861.380058 1347.000127 Z M 865.700059 1372.580129 L 863.600058 1371.180129 C 854.840058 1377.46013 847.520057 1385.180131 843.180057 1395.260132 C 841.660056 1398.780132 839.280056 1402.900132 843.260057 1406.360133 C 845.640057 1408.440133 849.960057 1406.220133 853.040057 1400.240132 C 857.680058 1391.260131 861.520058 1381.84013 865.700059 1372.620129 Z M 918.300064 1322.660125 C 929.060065 1317.400124 935.980065 1307.580123 934.940065 1299.040123 C 926.600064 1301.360123 918.880064 1312.340124 918.300064 1322.680125 Z M 918.300064 1322.660125 " transform="matrix(0.195312,0,0,0.195312,0.0000045,0)"/>
<path style="fill-rule:nonzero;fill:rgb(100%,100%,100%);fill-opacity:1;stroke-width:1;stroke-linecap:butt;stroke-linejoin:miter;stroke:rgb(100%,100%,100%);stroke-opacity:1;stroke-miterlimit:10;" d="M 845.120057 1292.440122 C 847.740057 1292.440122 849.840057 1292.440122 851.920057 1292.440122 C 854.540058 1292.380122 857.020058 1292.700122 857.480058 1295.800122 C 857.980058 1299.180123 856.580058 1301.580123 853.080057 1302.420123 C 850.180057 1303.100123 847.300057 1303.740123 843.420057 1304.640123 C 842.860056 1310.840124 841.900056 1317.200124 841.780056 1323.580125 C 841.500056 1336.780126 841.660056 1350.020127 841.620056 1363.240129 C 841.620056 1366.300129 842.860056 1370.140129 838.200056 1371.040129 C 835.200056 1371.640129 832.520055 1369.040129 831.360055 1364.380129 C 830.580055 1361.500128 830.180055 1358.580128 830.160055 1355.600128 C 830.280055 1344.000127 830.620055 1332.400126 830.960055 1320.820125 C 831.060055 1317.060124 831.340055 1313.320124 831.620055 1308.480123 C 819.340054 1312.480124 808.200053 1316.940124 797.860052 1323.160125 C 796.020052 1324.260125 794.860052 1326.920125 793.960052 1329.080125 C 787.960051 1342.920127 782.100051 1356.860128 776.12005 1370.720129 C 774.94005 1373.42013 773.80005 1376.32013 771.88005 1378.46013 C 770.78005 1379.70013 767.740049 1380.46013 766.360049 1379.84013 C 764.980049 1379.22013 763.760049 1376.20013 764.160049 1374.68013 C 765.600049 1369.480129 767.360049 1364.400129 769.46005 1359.420128 C 773.00005 1350.780127 776.82005 1342.240127 779.46005 1332.420126 C 776.46005 1334.020126 773.60005 1335.700126 770.60005 1337.200126 C 768.240049 1338.380126 765.840049 1338.660126 764.280049 1335.920126 C 763.920049 1335.420126 763.680049 1334.860126 763.560049 1334.240126 C 763.440049 1333.620126 763.460049 1333.020126 763.580049 1332.400126 C 763.720049 1331.800126 763.960049 1331.240126 764.340049 1330.720126 C 764.700049 1330.220125 765.160049 1329.800125 765.680049 1329.480125 C 769.68005 1326.700125 773.88005 1324.300125 778.30005 1322.300125 C 785.700051 1319.240124 790.400052 1314.200124 794.040052 1307.060123 C 805.600053 1284.420121 819.780054 1263.360119 835.280056 1243.220117 C 837.520056 1240.160117 840.140056 1237.460117 843.120056 1235.120117 C 845.200057 1233.860116 847.440057 1233.500116 849.800057 1234.020116 C 852.800057 1234.740116 853.660057 1237.740117 853.260057 1240.560117 C 852.540057 1245.640118 851.440057 1250.640118 850.560057 1255.680118 C 848.720057 1266.300119 846.920057 1276.94012 845.140057 1287.580121 C 845.020057 1289.200122 845.000057 1290.820122 845.120057 1292.440122 Z M 840.220056 1254.260118 C 828.840055 1264.260119 807.600053 1298.260122 805.880053 1308.380123 L 832.560056 1297.200122 C 835.060056 1283.180121 837.500056 1269.46012 840.220056 1254.260118 Z M 840.220056 1254.260118 " transform="matrix(0.195312,0,0,0.195312,0.0000045,0)"/>
<path style="fill-rule:nonzero;fill:rgb(100%,100%,100%);fill-opacity:1;stroke-width:1;stroke-linecap:butt;stroke-linejoin:miter;stroke:rgb(100%,100%,100%);stroke-opacity:1;stroke-miterlimit:10;" d="M 1244.560094 1264.000119 C 1244.240094 1266.600119 1244.440094 1269.28012 1243.560094 1271.52012 C 1237.800094 1286.220121 1230.560093 1300.140123 1218.560092 1310.800124 C 1214.360092 1314.640124 1209.640091 1317.680124 1204.400091 1319.960125 C 1192.540089 1324.960125 1181.620088 1320.280125 1176.180088 1308.580123 C 1173.000088 1301.780123 1172.440088 1294.520122 1173.320088 1287.180121 C 1173.840088 1282.340121 1174.720088 1277.580121 1175.940088 1272.86012 C 1183.300089 1245.060117 1195.98009 1219.940115 1214.000091 1197.500113 C 1217.620092 1193.120113 1221.620092 1189.120112 1226.000093 1185.500112 C 1229.120093 1182.880112 1232.600093 1180.860111 1236.440094 1179.440111 C 1245.980095 1176.020111 1253.200095 1180.440111 1254.820095 1190.440112 C 1255.260095 1193.380113 1255.260095 1196.340113 1254.820095 1199.280113 C 1253.140095 1211.580114 1248.140095 1222.560115 1240.740094 1232.460116 C 1235.860094 1238.960117 1232.180093 1240.460117 1229.080093 1237.460117 C 1226.220093 1234.700116 1227.020093 1231.200116 1232.280093 1225.720116 C 1238.760094 1219.000115 1243.880094 1211.440114 1246.400095 1202.420113 C 1247.340095 1199.040113 1247.720095 1195.580113 1247.560095 1192.080112 C 1247.300095 1187.620112 1244.560094 1185.960112 1240.240094 1187.340112 C 1238.440094 1187.960112 1236.800094 1188.860112 1235.320093 1190.060112 C 1232.720093 1192.020112 1230.320093 1194.160113 1228.100093 1196.540113 C 1207.540091 1219.840115 1192.460089 1246.040118 1186.740089 1276.88012 C 1185.540089 1283.560121 1185.260089 1290.280122 1185.880089 1297.020122 C 1187.060089 1310.280124 1199.40009 1316.140124 1209.880091 1308.020123 C 1216.580092 1302.820123 1222.260092 1296.020122 1227.320093 1289.080122 C 1231.920093 1282.820121 1235.060093 1275.52012 1238.820094 1268.64012 C 1239.900094 1266.560119 1240.180094 1263.760119 1244.560094 1264.000119 Z M 1244.560094 1264.000119 " transform="matrix(0.195312,0,0,0.195312,0.0000045,0)"/>
<path style="fill-rule:nonzero;fill:rgb(100%,100%,100%);fill-opacity:1;stroke-width:1;stroke-linecap:butt;stroke-linejoin:miter;stroke:rgb(100%,100%,100%);stroke-opacity:1;stroke-miterlimit:10;" d="M 1517.08012 1252.000118 C 1514.28012 1256.320119 1512.28012 1259.840119 1509.840119 1263.000119 C 1506.900119 1266.90012 1502.900119 1269.28012 1497.840118 1267.90012 C 1492.780118 1266.520119 1490.500118 1262.300119 1490.000118 1257.560119 C 1489.460117 1252.560118 1489.880118 1247.400118 1489.880118 1242.360117 L 1472.240116 1246.740118 C 1471.160116 1249.480118 1469.840116 1252.100118 1468.320115 1254.640118 C 1464.100115 1260.840119 1460.160115 1267.44012 1454.900114 1272.70012 C 1449.260114 1278.320121 1443.100113 1276.14012 1440.740113 1268.44012 C 1439.900113 1265.720119 1439.400113 1262.440119 1440.140113 1259.740119 C 1443.800113 1246.480118 1447.800114 1233.340116 1452.020114 1220.260115 C 1452.500114 1218.780115 1455.020114 1217.980115 1456.620114 1216.860115 C 1457.380114 1218.460115 1458.880115 1220.160115 1458.720115 1221.660115 C 1458.180115 1225.660116 1457.320114 1229.600116 1456.140114 1233.460116 C 1454.140114 1240.200117 1451.760114 1246.820118 1449.940114 1253.580118 C 1449.180114 1256.480119 1449.440114 1259.660119 1449.240114 1262.700119 L 1451.040114 1263.700119 C 1453.040114 1262.240119 1455.540114 1261.180119 1456.820114 1259.260119 C 1462.540115 1250.720118 1467.880115 1242.040117 1466.640115 1230.900116 C 1466.400115 1227.080116 1467.000115 1223.420115 1468.460115 1219.900115 C 1469.320116 1217.620115 1471.600116 1215.520115 1473.780116 1214.220115 C 1477.120116 1212.220114 1479.780117 1213.700114 1479.780117 1217.660115 C 1479.780117 1221.920115 1478.780116 1226.180116 1478.060116 1230.420116 C 1477.780116 1232.220116 1477.200116 1233.960116 1476.620116 1236.280117 C 1480.400117 1236.920117 1482.620117 1235.140117 1484.860117 1233.280116 C 1487.640117 1230.940116 1489.540117 1227.380116 1494.120118 1227.480116 C 1495.200118 1227.480116 1496.340118 1224.820116 1497.440118 1223.360115 C 1501.660119 1217.800115 1505.340119 1211.680114 1510.320119 1206.900114 C 1513.32012 1204.000114 1518.32012 1202.620113 1522.600121 1201.640113 C 1526.300121 1200.820113 1530.300121 1202.980113 1530.520121 1206.860114 C 1530.860121 1212.860114 1532.960122 1218.680115 1530.440121 1224.960116 C 1527.940121 1231.240116 1526.740121 1237.960117 1525.720121 1244.580117 C 1524.720121 1250.740118 1525.540121 1256.480119 1532.960122 1258.980119 C 1534.400122 1259.460119 1536.360122 1263.040119 1535.880122 1263.760119 C 1534.760122 1265.500119 1532.340122 1267.38012 1530.400121 1267.42012 C 1525.400121 1267.48012 1521.800121 1264.480119 1519.70012 1260.020119 C 1518.64012 1257.920119 1518.18012 1255.520118 1517.08012 1252.000118 Z M 1524.200121 1214.780115 C 1520.12012 1211.120114 1516.30012 1212.240114 1513.34012 1215.460115 C 1504.060119 1225.580116 1498.920118 1237.540117 1499.180118 1251.400118 C 1499.180118 1253.140118 1500.780119 1255.960118 1502.180119 1256.300119 C 1503.720119 1256.680119 1506.540119 1255.300118 1507.540119 1253.880118 C 1510.200119 1250.140118 1512.42012 1246.140118 1514.16012 1241.880117 C 1517.66012 1233.200116 1520.72012 1224.260115 1524.200121 1214.800115 Z M 1524.200121 1214.780115 " transform="matrix(0.195312,0,0,0.195312,0.0000045,0)"/>
<path style="fill-rule:nonzero;fill:rgb(100%,100%,100%);fill-opacity:1;stroke-width:1;stroke-linecap:butt;stroke-linejoin:miter;stroke:rgb(100%,100%,100%);stroke-opacity:1;stroke-miterlimit:10;" d="M 1388.320108 1225.220116 C 1386.040108 1224.960116 1383.860108 1225.040116 1381.900107 1224.400116 C 1378.780107 1223.400115 1378.160107 1220.160115 1380.660107 1218.120115 C 1381.940107 1217.100115 1383.400107 1216.440115 1385.000108 1216.120115 C 1392.180108 1214.860115 1395.880109 1210.260114 1398.580109 1203.840114 C 1401.080109 1197.920113 1404.580109 1192.380112 1407.76011 1186.760112 C 1408.98011 1184.620112 1410.76011 1182.480112 1413.62011 1183.760112 C 1417.000111 1185.260112 1416.220111 1188.040112 1415.02011 1190.640112 C 1413.14011 1194.800113 1411.16011 1198.920113 1408.96011 1203.580114 C 1412.08011 1204.400114 1414.24011 1202.720113 1416.600111 1202.020113 C 1418.660111 1201.360113 1420.760111 1200.840113 1422.880111 1200.440113 C 1425.600111 1200.020113 1427.760112 1201.020113 1428.340112 1203.940114 C 1428.860112 1206.560114 1427.280112 1207.840114 1424.980111 1208.640114 C 1420.660111 1210.180114 1416.460111 1212.060114 1412.06011 1213.360114 C 1404.060109 1215.700115 1399.260109 1220.680115 1397.300109 1228.760116 C 1394.880109 1238.700117 1391.920108 1248.540118 1389.660108 1258.500119 C 1389.000108 1261.980119 1389.000108 1265.440119 1389.660108 1268.90012 C 1390.220108 1272.08012 1393.140108 1273.18012 1395.900109 1271.40012 C 1398.200109 1269.96012 1400.100109 1268.10012 1401.600109 1265.820119 C 1404.480109 1261.280119 1406.86011 1256.400119 1409.46011 1251.680118 C 1410.28011 1250.000118 1411.26011 1248.400118 1412.38011 1246.900118 C 1413.20011 1246.180118 1414.14011 1245.940118 1415.20011 1246.180118 C 1416.180111 1246.700118 1416.760111 1247.500118 1416.920111 1248.580118 C 1417.040111 1250.240118 1416.740111 1251.800118 1416.020111 1253.280118 C 1411.80011 1260.800119 1407.48011 1268.24012 1403.020109 1275.60012 C 1402.080109 1276.94012 1400.940109 1278.080121 1399.600109 1279.040121 C 1390.820108 1286.180121 1382.180107 1283.040121 1379.940107 1271.90012 C 1378.300107 1263.740119 1379.740107 1255.740118 1381.720107 1247.900118 C 1383.660107 1240.320117 1386.080108 1232.900116 1388.320108 1225.220116 Z M 1388.320108 1225.220116 " transform="matrix(0.195312,0,0,0.195312,0.0000045,0)"/>
<path style="fill-rule:nonzero;fill:rgb(100%,100%,100%);fill-opacity:1;stroke-width:1;stroke-linecap:butt;stroke-linejoin:miter;stroke:rgb(100%,100%,100%);stroke-opacity:1;stroke-miterlimit:10;" d="M 1104.500081 1310.280124 C 1101.940081 1314.360124 1100.180081 1317.620124 1098.000081 1320.560125 C 1094.08008 1325.840125 1089.24008 1327.940125 1084.800079 1326.260125 C 1079.620079 1324.260125 1077.380079 1319.820125 1077.220079 1314.760124 C 1076.580079 1294.760122 1083.500079 1277.640121 1098.680081 1264.460119 C 1101.680081 1261.860119 1106.400081 1260.860119 1110.500082 1260.080119 C 1113.920082 1259.440119 1117.680082 1261.580119 1117.800082 1265.000119 C 1117.980082 1270.74012 1120.340083 1276.26012 1118.140082 1282.320121 C 1115.780082 1289.220122 1114.100082 1296.300122 1113.080082 1303.500123 C 1112.140082 1309.360124 1113.080082 1314.920124 1120.080083 1317.180124 C 1122.540083 1317.960124 1124.700083 1320.180125 1123.120083 1322.680125 C 1121.680083 1324.660125 1119.740083 1325.700125 1117.300082 1325.820125 C 1111.980082 1325.540125 1108.460082 1322.160125 1106.520081 1317.280124 C 1105.740081 1315.360124 1105.340081 1313.300124 1104.500081 1310.280124 Z M 1111.560082 1273.50012 C 1106.140081 1270.08012 1103.480081 1270.16012 1099.260081 1275.30012 C 1091.74008 1284.480121 1087.14008 1295.020122 1086.380079 1307.020123 C 1086.300079 1308.360123 1086.380079 1309.700124 1086.620079 1311.020124 C 1087.46008 1315.220124 1090.62008 1316.620124 1093.50008 1313.580124 C 1096.32008 1310.660124 1098.520081 1307.340123 1100.100081 1303.580123 C 1104.220081 1293.680122 1107.780081 1283.540121 1111.560082 1273.50012 Z M 1111.560082 1273.50012 " transform="matrix(0.195312,0,0,0.195312,0.0000045,0)"/>
<path style="fill-rule:nonzero;fill:rgb(100%,100%,100%);fill-opacity:1;stroke-width:1;stroke-linecap:butt;stroke-linejoin:miter;stroke:rgb(100%,100%,100%);stroke-opacity:1;stroke-miterlimit:10;" d="M 1353.900105 1275.38012 C 1351.140104 1279.700121 1349.200104 1283.240121 1346.740104 1286.380121 C 1343.820104 1290.140122 1340.020103 1292.980122 1334.900103 1291.580122 C 1329.540102 1290.100122 1327.100102 1285.860121 1326.800102 1280.640121 C 1325.620102 1259.940119 1332.920103 1242.640117 1348.560104 1229.080116 C 1350.960104 1227.240116 1353.620105 1226.000116 1356.560105 1225.380116 C 1363.380106 1223.680115 1366.780106 1227.020116 1367.900106 1233.960116 C 1369.000106 1240.880117 1367.480106 1246.960118 1365.520106 1253.440118 C 1363.760106 1259.300119 1363.160106 1265.560119 1362.520105 1271.68012 C 1362.060105 1276.28012 1363.620106 1280.220121 1368.520106 1281.940121 C 1371.340106 1282.940121 1373.520107 1284.580121 1372.460106 1287.860121 C 1371.240106 1291.560122 1367.920106 1291.320122 1364.980106 1290.720122 C 1362.960106 1290.300122 1361.160105 1289.420122 1359.600105 1288.060122 C 1358.020105 1286.700121 1356.900105 1285.040121 1356.200105 1283.080121 C 1355.320105 1280.880121 1354.820105 1278.500121 1353.900105 1275.38012 Z M 1360.900105 1238.720117 C 1358.680105 1235.300117 1355.840105 1235.340117 1352.580105 1237.120117 C 1343.900104 1241.840117 1333.140103 1267.00012 1335.800103 1276.36012 C 1336.940103 1280.360121 1340.200103 1281.700121 1342.960104 1278.700121 C 1345.880104 1275.52012 1348.160104 1271.94012 1349.820104 1267.96012 C 1353.800105 1258.360119 1357.220105 1248.520118 1360.880105 1238.720117 Z M 1360.900105 1238.720117 " transform="matrix(0.195312,0,0,0.195312,0.0000045,0)"/>
<path style="fill-rule:nonzero;fill:rgb(100%,100%,100%);fill-opacity:1;stroke-width:1;stroke-linecap:butt;stroke-linejoin:miter;stroke:rgb(100%,100%,100%);stroke-opacity:1;stroke-miterlimit:10;" d="M 977.180069 1303.360123 C 981.06007 1299.040123 984.76007 1294.540122 988.86007 1290.440122 C 991.48007 1287.700121 994.440071 1285.360121 997.700071 1283.440121 C 1001.320071 1281.440121 1004.480072 1283.840121 1003.660072 1287.900121 C 1002.900072 1290.760122 1001.700071 1293.420122 1000.060071 1295.900122 C 994.880071 1304.800123 990.22007 1313.900124 988.70007 1324.260125 C 987.70007 1330.940126 988.32007 1337.160126 992.300071 1342.820127 C 993.880071 1345.080127 995.800071 1347.580127 992.840071 1349.820127 C 992.240071 1350.320127 991.580071 1350.660127 990.82007 1350.840127 C 990.08007 1351.020127 989.34007 1351.040127 988.58007 1350.880127 C 987.82007 1350.740127 987.14007 1350.420127 986.52007 1349.960127 C 985.92007 1349.480127 985.42007 1348.900127 985.08007 1348.220127 C 982.68007 1344.140127 980.020069 1339.580126 979.720069 1335.060126 C 979.300069 1328.480125 980.800069 1321.740125 981.64007 1315.060124 C 981.88007 1313.060124 982.64007 1311.160124 982.70007 1309.000123 C 974.860069 1316.140124 970.500069 1325.280125 966.560068 1334.720126 C 965.560068 1337.200126 964.740068 1339.960126 963.080068 1341.940127 C 961.560068 1343.440127 959.740068 1344.100127 957.600067 1343.940127 C 956.540067 1343.780127 955.420067 1341.140127 955.140067 1339.480126 C 954.880067 1337.580126 955.100067 1335.720126 955.760067 1333.920126 C 960.400068 1320.680125 965.160068 1307.500123 969.960068 1294.320122 C 970.420069 1292.720122 971.220069 1291.340122 972.380069 1290.180122 C 973.880069 1288.980122 976.160069 1287.480121 977.660069 1287.860121 C 980.580069 1288.600122 980.400069 1291.460122 979.660069 1293.920122 C 979.100069 1295.720122 978.220069 1297.400122 977.520069 1299.160123 C 977.060069 1300.340123 976.700069 1301.540123 976.280069 1302.740123 Z M 977.180069 1303.360123 " transform="matrix(0.195312,0,0,0.195312,0.0000045,0)"/>
<path style="fill-rule:nonzero;fill:rgb(100%,100%,100%);fill-opacity:1;stroke-width:1;stroke-linecap:butt;stroke-linejoin:miter;stroke:rgb(100%,100%,100%);stroke-opacity:1;stroke-miterlimit:10;" d="M 1266.320096 1263.940119 C 1270.120097 1259.560119 1273.760097 1255.020118 1277.760098 1250.840118 C 1282.040098 1246.360118 1286.620098 1242.180117 1291.160099 1237.940117 C 1293.000099 1236.240117 1295.360099 1235.940117 1296.700099 1238.160117 C 1297.440099 1239.860117 1297.400099 1241.520117 1296.540099 1243.160117 C 1295.260099 1245.460117 1293.000099 1247.220118 1291.540099 1249.440118 C 1289.640099 1252.220118 1288.080098 1255.220118 1285.980098 1258.820119 C 1296.240099 1261.820119 1299.4201 1250.660118 1307.9801 1250.220118 C 1307.6801 1252.380118 1307.9801 1254.400118 1307.1401 1255.620118 C 1303.2401 1261.220119 1298.440099 1265.960119 1292.140099 1268.84012 C 1284.140098 1272.50012 1280.020098 1270.94012 1276.240097 1262.540119 C 1267.840097 1272.24012 1261.480096 1283.140121 1257.140096 1295.220122 C 1256.140095 1298.000122 1255.140095 1300.800123 1253.960095 1303.520123 C 1252.960095 1305.960123 1250.840095 1307.900123 1248.320095 1306.760123 C 1247.000095 1306.160123 1245.780094 1303.220123 1246.020095 1301.580123 C 1248.940095 1282.860121 1253.240095 1264.580119 1263.360096 1248.180118 C 1264.520096 1246.320118 1266.020096 1244.820117 1267.840097 1243.640117 C 1268.940097 1242.960117 1271.220097 1242.880117 1272.120097 1243.580117 C 1273.200097 1244.800117 1273.540097 1246.180118 1273.120097 1247.740118 C 1271.940097 1250.740118 1270.120097 1253.440118 1268.600097 1256.300119 C 1267.440097 1258.600119 1266.440096 1261.000119 1265.360096 1263.300119 Z M 1266.320096 1263.940119 " transform="matrix(0.195312,0,0,0.195312,0.0000045,0)"/>
<path style="fill-rule:nonzero;fill:rgb(100%,100%,100%);fill-opacity:1;stroke-width:1;stroke-linecap:butt;stroke-linejoin:miter;stroke:rgb(100%,100%,100%);stroke-opacity:1;stroke-miterlimit:10;" d="M 1032.840074 1282.660121 C 1030.340074 1284.940121 1027.460074 1286.920121 1025.400074 1289.560122 C 1018.900073 1298.100122 1014.660073 1307.620123 1012.680072 1318.160124 C 1012.400072 1319.480124 1012.300072 1320.820125 1012.400072 1322.160125 C 1012.860073 1327.700125 1016.920073 1330.420126 1022.020073 1328.160125 C 1025.040074 1326.880125 1027.640074 1325.020125 1029.820074 1322.580125 C 1034.160075 1317.440124 1037.920075 1311.820124 1041.940075 1306.420123 C 1043.440075 1304.420123 1045.040076 1302.420123 1046.540076 1300.560123 C 1050.640076 1303.180123 1049.620076 1305.860123 1048.420076 1308.260123 C 1043.720075 1317.780124 1037.880075 1326.500125 1029.520074 1333.260126 C 1029.100074 1333.620126 1028.680074 1333.960126 1028.220074 1334.260126 C 1022.220073 1338.200126 1015.860073 1340.520126 1009.220072 1336.480126 C 1002.560072 1332.460126 1001.760071 1325.480125 1002.920072 1318.480124 C 1004.160072 1310.960124 1006.540072 1303.820123 1010.080072 1297.060122 C 1013.620073 1290.320122 1018.120073 1284.280121 1023.600074 1278.980121 C 1025.940074 1276.70012 1028.600074 1274.94012 1031.600074 1273.68012 C 1036.820075 1271.58012 1040.680075 1273.86012 1042.060075 1279.200121 C 1043.580075 1285.020121 1039.700075 1296.360122 1034.760075 1299.680123 C 1033.620074 1300.440123 1031.360074 1300.860123 1030.440074 1300.220123 C 1029.500074 1299.600123 1029.340074 1297.340122 1029.660074 1296.000122 C 1029.980074 1294.660122 1031.540074 1293.360122 1032.160074 1291.900122 C 1033.260074 1289.340122 1034.080075 1286.640121 1035.000075 1284.000121 Z M 1032.840074 1282.660121 " transform="matrix(0.195312,0,0,0.195312,0.0000045,0)"/>
<path style="fill-rule:nonzero;fill:rgb(100%,100%,100%);fill-opacity:1;stroke-width:1;stroke-linecap:butt;stroke-linejoin:miter;stroke:rgb(100%,100%,100%);stroke-opacity:1;stroke-miterlimit:10;" d="M 1412.42011 1276.58012 C 1415.980111 1264.220119 1419.120111 1252.260118 1422.940111 1240.580117 C 1424.760111 1234.980117 1427.740112 1229.760116 1430.380112 1224.460116 C 1431.360112 1222.540115 1432.640112 1220.840115 1434.220112 1219.380115 C 1435.340112 1218.600115 1436.540112 1218.460115 1437.800113 1218.940115 C 1438.920113 1219.760115 1439.480113 1220.840115 1439.460113 1222.220115 C 1439.120113 1224.360116 1438.440113 1226.380116 1437.460113 1228.300116 C 1430.360112 1243.240117 1425.480111 1258.880119 1422.780111 1275.18012 C 1422.640111 1276.26012 1422.380111 1277.30012 1422.020111 1278.320121 C 1421.120111 1280.680121 1419.720111 1283.320121 1416.880111 1282.040121 C 1415.14011 1281.240121 1414.12011 1278.720121 1412.42011 1276.58012 Z M 1412.42011 1276.58012 " transform="matrix(0.195312,0,0,0.195312,0.0000045,0)"/>
<path style="fill-rule:nonzero;fill:rgb(100%,100%,100%);fill-opacity:1;stroke-width:1;stroke-linecap:butt;stroke-linejoin:miter;stroke:rgb(100%,100%,100%);stroke-opacity:1;stroke-miterlimit:10;" d="M 1051.300076 1328.800125 C 1053.860076 1308.020123 1059.800077 1290.000122 1069.440078 1273.26012 C 1070.280078 1271.86012 1071.400078 1270.76012 1072.820078 1269.96012 C 1073.840078 1269.32012 1074.880078 1269.30012 1075.900078 1269.94012 C 1076.940079 1270.60012 1077.380079 1271.52012 1077.240079 1272.72012 C 1077.000079 1274.86012 1076.400079 1276.90012 1075.440078 1278.820121 C 1068.260078 1293.980122 1063.300077 1309.820124 1060.540077 1326.360125 C 1060.440077 1327.160125 1060.260077 1327.940125 1060.020077 1328.720125 C 1059.140077 1331.440126 1057.760077 1334.240126 1054.460076 1332.840126 C 1052.740076 1332.120126 1051.820076 1329.500125 1051.300076 1328.800125 Z M 1051.300076 1328.800125 " transform="matrix(0.195312,0,0,0.195312,0.0000045,0)"/>
<path style="fill-rule:nonzero;fill:rgb(100%,100%,100%);fill-opacity:1;stroke-width:1;stroke-linecap:butt;stroke-linejoin:miter;stroke:rgb(100%,100%,100%);stroke-opacity:1;stroke-miterlimit:10;" d="M 1300.8601 1291.440122 C 1303.2001 1272.22012 1309.2001 1254.220118 1318.860101 1237.440117 C 1319.500101 1236.220117 1320.400102 1235.260117 1321.560102 1234.580116 C 1322.800102 1234.020116 1324.040102 1234.020116 1325.280102 1234.580116 C 1326.320102 1235.460117 1326.800102 1236.560117 1326.740102 1237.920117 C 1326.380102 1239.780117 1325.760102 1241.540117 1324.840102 1243.200117 C 1317.820101 1257.820119 1312.920101 1273.14012 1310.180101 1289.140122 C 1309.920101 1290.720122 1309.880101 1292.580122 1309.0001 1293.780122 C 1307.8801 1295.300122 1306.0001 1297.280122 1304.5001 1297.200122 C 1303.2201 1297.140122 1301.9601 1294.560122 1300.9201 1292.940122 C 1300.7001 1292.460122 1300.6801 1291.960122 1300.8601 1291.440122 Z M 1300.8601 1291.440122 " transform="matrix(0.195312,0,0,0.195312,0.0000045,0)"/>
<path style="fill-rule:nonzero;fill:rgb(100%,100%,100%);fill-opacity:1;stroke-width:1;stroke-linecap:butt;stroke-linejoin:miter;stroke:rgb(100%,100%,100%);stroke-opacity:1;stroke-miterlimit:10;" d="M 915.760063 1266.540119 C 916.320063 1265.540119 916.820063 1263.940119 917.900064 1262.980119 C 919.960064 1261.260119 922.160064 1259.720119 924.480064 1258.380119 C 933.960065 1252.760118 942.740066 1255.600118 947.160066 1265.880119 C 947.760066 1267.26012 947.600066 1269.88012 946.660066 1270.78012 C 945.740066 1271.70012 942.480066 1272.10012 941.840066 1271.34012 C 935.500065 1263.920119 928.840065 1264.980119 921.480064 1269.58012 C 919.400064 1270.90012 916.680063 1270.42012 915.760063 1266.540119 Z M 915.760063 1266.540119 " transform="matrix(0.195312,0,0,0.195312,0.0000045,0)"/>
<path style="fill-rule:nonzero;fill:rgb(100%,100%,100%);fill-opacity:1;stroke-width:1;stroke-linecap:butt;stroke-linejoin:miter;stroke:rgb(100%,100%,100%);stroke-opacity:1;stroke-miterlimit:10;" d="M 1075.900078 1243.360117 C 1078.780079 1239.580117 1081.260079 1235.840117 1084.280079 1232.600116 C 1085.280079 1231.600116 1088.36008 1231.100116 1089.28008 1231.840116 C 1090.84008 1233.300116 1091.62008 1235.100117 1091.60008 1237.220117 C 1091.44008 1239.540117 1090.80008 1241.720117 1089.62008 1243.720117 C 1088.46008 1245.740118 1086.900079 1247.400118 1084.940079 1248.660118 C 1083.500079 1249.660118 1080.640079 1250.100118 1079.180079 1249.320118 C 1077.740079 1248.560118 1077.240079 1246.000118 1075.900078 1243.360117 Z M 1075.900078 1243.360117 " transform="matrix(0.195312,0,0,0.195312,0.0000045,0)"/>
<path style="fill-rule:nonzero;fill:rgb(100%,100%,100%);fill-opacity:1;stroke-width:1;stroke-linecap:butt;stroke-linejoin:miter;stroke:rgb(100%,100%,100%);stroke-opacity:1;stroke-miterlimit:10;" d="M 1454.160114 1184.860112 C 1453.320114 1190.860112 1450.980114 1194.980113 1446.880113 1197.860113 C 1445.580113 1198.760113 1442.820113 1199.200113 1441.780113 1198.420113 C 1440.180113 1197.060113 1439.380113 1195.300113 1439.360113 1193.180113 C 1439.600113 1190.740112 1440.360113 1188.480112 1441.660113 1186.400112 C 1442.960113 1184.320112 1444.660113 1182.640112 1446.740113 1181.360111 C 1448.420114 1180.440111 1450.160114 1180.340111 1451.920114 1181.080111 C 1453.220114 1181.740111 1453.680114 1184.000112 1454.160114 1184.860112 Z M 1454.160114 1184.860112 " transform="matrix(0.195312,0,0,0.195312,0.0000045,0)"/>
<path style="fill-rule:nonzero;fill:rgb(100%,100%,100%);fill-opacity:1;stroke-width:1;stroke-linecap:butt;stroke-linejoin:miter;stroke:rgb(100%,100%,100%);stroke-opacity:1;stroke-miterlimit:10;" d="M 1341.500104 1200.320113 C 1340.180103 1206.240114 1338.040103 1210.860114 1333.380103 1213.700114 C 1329.780102 1215.920115 1326.040102 1213.700114 1326.320102 1209.420114 C 1326.480102 1206.820114 1327.220102 1204.380114 1328.540102 1202.140113 C 1329.880102 1199.900113 1331.660103 1198.100113 1333.880103 1196.720113 C 1335.540103 1195.800113 1337.240103 1195.680113 1338.980103 1196.340113 C 1340.320103 1197.060113 1340.880103 1199.240113 1341.500104 1200.320113 Z M 1341.500104 1200.320113 " transform="matrix(0.195312,0,0,0.195312,0.0000045,0)"/>
<path style="fill-rule:nonzero;fill:rgb(100%,100%,100%);fill-opacity:1;stroke-width:1;stroke-linecap:butt;stroke-linejoin:miter;stroke:rgb(100%,100%,100%);stroke-opacity:1;stroke-miterlimit:10;" d="M 865.700059 1372.620129 C 861.520058 1381.84013 857.700058 1391.260131 853.040057 1400.260132 C 849.960057 1406.260133 845.640057 1408.480133 843.260057 1406.400133 C 839.260056 1402.920132 841.660056 1398.820132 843.180057 1395.280132 C 847.520057 1385.160131 854.840058 1377.50013 863.600058 1371.200129 Z M 865.700059 1372.620129 " transform="matrix(0.195312,0,0,0.195312,0.0000045,0)"/>
<path style="fill-rule:nonzero;fill:rgb(100%,100%,100%);fill-opacity:1;stroke-width:1;stroke-linecap:butt;stroke-linejoin:miter;stroke:rgb(100%,100%,100%);stroke-opacity:1;stroke-miterlimit:10;" d="M 1524.200121 1214.800115 C 1520.72012 1224.260115 1517.66012 1233.200116 1514.12012 1241.940117 C 1512.38012 1246.180118 1510.160119 1250.180118 1507.500119 1253.940118 C 1506.500119 1255.400118 1503.680119 1256.720119 1502.140119 1256.340119 C 1500.780119 1256.020118 1499.200118 1253.200118 1499.140118 1251.460118 C 1498.880118 1237.580117 1504.020119 1225.640116 1513.30012 1215.520115 C 1516.30012 1212.260114 1520.12012 1211.140114 1524.200121 1214.800115 Z M 1524.200121 1214.800115 " transform="matrix(0.195312,0,0,0.195312,0.0000045,0)"/>
</g>
</svg>
