<?xml version="1.0" encoding="UTF-8"?>
<svg xmlns="http://www.w3.org/2000/svg" xmlns:xlink="http://www.w3.org/1999/xlink" width="375pt" height="374.999991pt" viewBox="0 0 375 374.999991" version="1.2">
<g id="surface1">
<path style="fill-rule:nonzero;fill:rgb(100%,100%,100%);fill-opacity:1;stroke-width:1;stroke-linecap:butt;stroke-linejoin:miter;stroke:rgb(100%,100%,100%);stroke-opacity:1;stroke-miterlimit:10;" d="M 654.500039 647.500061 C 689.420042 647.220061 723.020045 653.720062 755.300048 667.000063 C 839.240056 701.920066 906.720062 782.460074 918.220064 876.680083 C 925.320064 935.040088 918.700064 991.340094 889.820061 1043.200098 C 852.220057 1110.720105 796.980052 1158.020109 720.820045 1176.000111 C 630.820036 1197.240113 547.600029 1181.680111 475.820022 1120.640106 C 428.720017 1080.580102 398.020015 1030.260097 387.500014 968.960091 C 376.300012 903.620085 382.760013 840.420079 417.160016 782.500074 C 438.360018 746.78007 464.760021 717.500068 496.620024 695.340066 C 522.840026 677.280064 551.340029 664.260063 582.140032 656.280062 C 605.860034 650.120061 629.980036 647.180061 654.500039 647.500061 Z M 652.240038 1048.220099 C 725.000045 1049.840099 784.980051 987.360093 785.240051 916.040086 C 785.420051 846.04008 724.540045 783.940074 652.540039 783.840074 C 581.160032 783.740074 518.240026 841.540079 518.340026 915.920086 C 518.440026 990.320093 582.000032 1049.920099 652.240038 1048.220099 Z M 652.240038 1048.220099 " transform="matrix(0.195312,0,0,0.195312,0.0000045,0)"/>
<path style="fill-rule:nonzero;fill:rgb(100%,100%,100%);fill-opacity:1;stroke-width:1;stroke-linecap:butt;stroke-linejoin:miter;stroke:rgb(100%,100%,100%);stroke-opacity:1;stroke-miterlimit:10;" d="M 1529.780121 1168.60011 L 1394.140108 1168.60011 C 1394.040108 1165.32011 1393.840108 1162.20011 1393.840108 1159.060109 C 1393.840108 1079.340102 1393.840108 999.620094 1393.840108 919.900087 C 1394.000108 907.420086 1392.680108 895.100084 1389.840108 882.940083 C 1378.280107 835.660079 1327.440102 779.760074 1252.080095 784.200074 C 1188.080089 787.980074 1142.760085 836.340079 1131.440084 879.640083 C 1128.140083 892.520084 1126.540083 905.620085 1126.620083 918.920087 C 1126.660083 998.640094 1126.660083 1078.360102 1126.620083 1158.080109 L 1126.620083 1168.58011 L 991.34007 1168.58011 C 991.18007 1165.58011 990.92007 1162.92011 990.92007 1160.300109 C 990.92007 1077.600102 990.66007 994.900094 990.96007 912.200086 C 991.38007 795.940075 1067.480078 693.520065 1178.160088 659.700062 C 1200.02009 653.040062 1222.260092 648.860061 1245.280094 649.580061 C 1253.120095 649.840061 1260.980096 649.760061 1268.820097 649.580061 C 1332.460103 648.300061 1387.540108 670.440063 1435.420112 711.160067 C 1481.820117 750.580071 1512.62012 799.660075 1524.420121 859.900081 C 1527.900121 877.440083 1529.660121 895.160084 1529.700121 913.040086 C 1529.820121 995.720094 1529.820121 1078.420102 1529.700121 1161.14011 Z M 1529.780121 1168.60011 " transform="matrix(0.195312,0,0,0.195312,0.0000045,0)"/>
</g>
</svg>
